<?xml version="1.0" encoding="UTF-8"?>
<svg version="1.1" xmlns="http://www.w3.org/2000/svg" width="512" height="512">
<path d="M0 0 C1.24200582 0.61544001 2.484287 1.23032457 3.72680664 1.84472656 C4.37569855 2.16671021 5.02459045 2.48869385 5.69314575 2.82043457 C21.40126121 10.58924968 37.32793108 17.55508372 53.65234375 23.9453125 C54.81427246 24.40357422 55.97620117 24.86183594 57.17333984 25.33398438 C94.13199935 39.78337018 132.33162171 49.29900755 171.17651367 57.05273438 C172.55061527 57.32727448 172.55061527 57.32727448 173.9524765 57.60736084 C176.1857289 58.05352873 178.41901854 58.49950924 180.65234375 58.9453125 C180.74644117 77.77576045 180.81663931 96.60615966 180.85959244 115.43679523 C180.88008037 124.18328599 180.90793181 132.92962936 180.95410156 141.67602539 C180.99439717 149.31336669 181.01987609 156.9506011 181.02869773 164.58804578 C181.03384153 168.61936693 181.04562999 172.65038272 181.07526398 176.68160439 C181.2589842 202.71258261 179.47331831 227.91705548 171.65234375 252.9453125 C171.43352539 253.64736816 171.21470703 254.34942383 170.98925781 255.07275391 C162.69777822 281.08441302 149.73909321 304.69050916 132.65234375 325.9453125 C131.96567627 326.80552002 131.96567627 326.80552002 131.26513672 327.68310547 C119.37103638 342.44130857 105.76644954 356.4841628 90.65234375 367.9453125 C89.65460938 368.73679687 88.656875 369.52828125 87.62890625 370.34375 C79.61126472 376.68328051 71.2683654 382.4507447 62.65234375 387.9453125 C62.07323242 388.31479004 61.49412109 388.68426758 60.89746094 389.06494141 C43.50394039 400.05058243 25.03061782 409.32669005 5.95751953 417.00537109 C3.82706526 417.87406935 1.72245933 418.7872133 -0.3828125 419.71484375 C-1.56746094 420.20339844 -2.75210938 420.69195312 -3.97265625 421.1953125 C-5.44605469 421.82179688 -5.44605469 421.82179688 -6.94921875 422.4609375 C-16.02754552 423.75485994 -25.62881688 418.39645422 -33.78515625 414.8828125 C-34.92186768 414.39530518 -36.0585791 413.90779785 -37.22973633 413.40551758 C-67.87243375 400.12479222 -96.26561183 383.08055935 -121.34765625 360.9453125 C-122.146875 360.25695312 -122.94609375 359.56859375 -123.76953125 358.859375 C-136.30814373 347.87757011 -148.2543473 336.09023235 -158.11669922 322.625 C-159.34551332 320.9482366 -160.59710133 319.29044097 -161.8515625 317.6328125 C-188.72685253 281.63115469 -203.58383703 237.08716099 -203.46118164 192.22412109 C-203.46089903 190.76453656 -203.46105895 189.30495188 -203.46162415 187.84536743 C-203.46190922 183.91218807 -203.4560595 179.97903966 -203.44905019 176.04586744 C-203.44276825 171.92459237 -203.44220904 167.80331647 -203.44102478 163.68203735 C-203.43792567 155.89085079 -203.42973154 148.09967838 -203.41967529 140.30849802 C-203.4084699 131.4329835 -203.40299258 122.55746827 -203.39797986 113.68194842 C-203.38754765 95.43639511 -203.36997588 77.19085495 -203.34765625 58.9453125 C-202.13081146 58.69362305 -200.91396667 58.44193359 -199.6602478 58.18261719 C-195.0647481 57.23128077 -190.4700578 56.27608184 -185.87557983 55.31982422 C-183.90211878 54.9096211 -181.92845118 54.50041021 -179.95455933 54.09228516 C-125.80832663 42.89329302 -60.9440908 27.17910603 -14.3046875 -4.4375 C-9.66683358 -5.90013657 -4.09585327 -2.04868857 0 0 Z M-41.2421875 124.20703125 C-49.8894081 132.25789181 -55.62379758 142.83977883 -56.68359375 154.70703125 C-56.82831645 169.25166299 -53.45884642 180.36674892 -43.24609375 191.16796875 C-32.96643304 200.88460917 -21.4648857 204.60915273 -7.42578125 204.2578125 C2.09751268 203.72429463 10.2876873 199.84807086 17.65234375 193.9453125 C18.34070313 193.39359375 19.0290625 192.841875 19.73828125 192.2734375 C27.56046578 185.26044447 33.24839221 174.56746894 33.890625 164.0390625 C34.25153628 149.28198017 31.7359135 138.30278519 21.65234375 126.9453125 C3.78994227 109.63906637 -21.83422014 109.04210129 -41.2421875 124.20703125 Z M-70.34765625 248.9453125 C-70.92257813 249.50992188 -71.4975 250.07453125 -72.08984375 250.65625 C-82.01996523 261.20378836 -85.52738892 275.30758309 -85.78515625 289.3828125 C-85.80755371 290.15254395 -85.82995117 290.92227539 -85.85302734 291.71533203 C-85.83742679 295.4586435 -85.57695902 297.54145773 -83.6953125 300.85546875 C-77.82448108 306.08158324 -70.43739434 305.23573707 -63.02758789 305.2199707 C-61.78949875 305.22508163 -60.55140961 305.23019257 -59.27580261 305.23545837 C-55.8914173 305.24695466 -52.50727738 305.24943155 -49.12288976 305.24689507 C-46.29245055 305.24582273 -43.46203375 305.25071543 -40.63159937 305.2555005 C-33.95172941 305.26658181 -27.2719157 305.26704076 -20.59204102 305.26098633 C-13.71190836 305.25494608 -6.83198019 305.26726187 0.04811758 305.2885564 C5.96593428 305.30619584 11.88368603 305.3121701 17.80152804 305.30891865 C21.33125757 305.30710948 24.86084119 305.30970528 28.3905468 305.32363319 C32.32807254 305.33859013 36.26533955 305.32922089 40.20288086 305.31762695 C41.36518219 305.32527069 42.52748352 305.33291443 43.7250061 305.34078979 C50.62136282 305.29591517 56.14646687 304.97896923 61.56640625 300.2890625 C63.20708479 296.74802968 63.09624484 293.26971917 63.02734375 289.4453125 C63.01719238 288.64013184 63.00704102 287.83495117 62.99658203 287.00537109 C62.57278883 270.56942231 56.30226567 257.45064319 44.65234375 245.9453125 C43.84023438 245.10033203 43.84023438 245.10033203 43.01171875 244.23828125 C31.94659066 233.64817128 17.5286859 230.63181222 2.78515625 230.64453125 C1.66978485 230.64024612 0.55441345 230.635961 -0.59475708 230.63154602 C-2.94288457 230.62582959 -5.29102975 230.62528251 -7.63916016 230.62963867 C-11.20506408 230.63279692 -14.77013595 230.60931037 -18.3359375 230.58398438 C-20.62890522 230.58171074 -22.92187514 230.58100818 -25.21484375 230.58203125 C-26.79348709 230.56821663 -26.79348709 230.56821663 -28.40402222 230.55412292 C-45.07658066 230.65682266 -58.71606176 237.1469568 -70.34765625 248.9453125 Z " fill="#000000" transform="translate(267.34765625,47.0546875)"/>
</svg>
